<svg width="201" height="40" viewBox="0 0 201 40" fill="none" xmlns="http://www.w3.org/2000/svg">
<circle cx="26" cy="26" r="14" fill="#EC615B"/>
<g style="mix-blend-mode:multiply">
<circle cx="14" cy="14" r="14" fill="#5222D0"/>
</g>
<path d="M64.15 14.8749C64.15 11.8499 61.725 9.4999 58.7 9.4999H51.225V26.9999H59.425C63 26.9999 64.85 24.5249 64.875 21.4749C64.875 19.9249 64.2 18.6249 62.775 17.8999C63.625 17.1999 64.15 15.9249 64.15 14.8749ZM59.1 20.0499C60.9 20.0499 60.925 23.0249 59.125 23.0249H55.55V20.0499H59.1ZM58.35 13.4999C60.15 13.4999 60.15 16.3249 58.375 16.3249H55.55V13.4999H58.35Z" fill="black"/>
<path d="M78.8137 18.3999V26.9999C80.3637 26.9999 81.9137 26.9999 83.4387 26.9999V9.4249H81.8137L72.9637 18.0749V9.4999C71.4387 9.4999 69.9137 9.4999 68.3887 9.4999V27.0249H69.9887L78.8137 18.3999Z" fill="black"/>
<path d="M99.0443 26.9999H103.419V26.3499L95.5193 9.2749H93.5943L85.7193 26.3499V26.9999H90.0943L91.1193 24.7999H98.0193L99.0443 26.9999ZM96.5693 20.9749H92.5693L94.5443 16.3749L96.5693 20.9749Z" fill="black"/>
<path d="M110.192 26.9999V22.5249H113.417C121.792 22.5249 121.792 9.5249 113.417 9.4999C110.842 9.4999 108.242 9.4999 105.717 9.4999C105.717 15.3499 105.717 21.1749 105.717 26.9999C107.192 26.9999 108.692 26.9999 110.192 26.9999ZM113.392 18.4999H110.192C110.192 17.0749 110.192 14.9249 110.192 13.4999C111.217 13.4999 112.342 13.4749 113.392 13.4999C115.992 13.5249 115.842 18.4999 113.392 18.4999Z" fill="black"/>
<path d="M124.151 26.9999H128.976L137.276 10.1749V9.4999H132.426L129.426 15.9499H129.301L126.001 9.4999H121.001V10.1749L126.901 20.8749L124.151 26.5249V26.9999Z" fill="black"/>
<path d="M139.727 26.9999H161.902V9.4999H157.327V22.8749H153.102V9.4999H148.527V22.8749H144.302V9.4999H139.727V26.9999Z" fill="black"/>
<path d="M170.937 26.9999V20.3249C171.512 20.3249 172.062 20.3249 172.662 20.2249L176.512 26.9999H181.487V26.2999L176.737 18.5999C180.212 16.3749 180.112 13.0749 180.112 9.4999C178.562 9.4999 177.037 9.4999 175.512 9.4999C175.512 12.7749 175.737 16.1249 171.262 16.1249H170.937V9.4999C169.387 9.4999 167.887 9.4999 166.387 9.4999V26.9999C167.887 26.9999 169.387 26.9999 170.937 26.9999Z" fill="black"/>
<path d="M196.237 26.9999H200.612V26.3499L192.712 9.2749H190.787L182.912 26.3499V26.9999H187.287L188.312 24.7999H195.212L196.237 26.9999ZM193.762 20.9749H189.762L191.737 16.3749L193.762 20.9749Z" fill="black"/>
</svg>
